HIERARCHY
ROOT Hips
{
	OFFSET 0.00000 0.00000 0.00000
	CHANNELS 6 Xposition Yposition Zposition Zrotation Yrotation Xrotation 
	JOINT LHipJoint
	{
		OFFSET 0 0 0
		CHANNELS 3 Zrotation Yrotation Xrotation
		JOINT LeftUpLeg
		{
			OFFSET 1.37590 -1.78394 0.89329
			CHANNELS 3 Zrotation Yrotation Xrotation
			JOINT LeftLeg
			{
				OFFSET 2.47928 -6.81178 0.00000
				CHANNELS 3 Zrotation Yrotation Xrotation
				JOINT LeftFoot
				{
					OFFSET 2.63345 -7.23535 0.00000
					CHANNELS 3 Zrotation Yrotation Xrotation
					JOINT LeftToeBase
					{
						OFFSET 0.23938 -0.65768 2.27012
						CHANNELS 3 Zrotation Yrotation Xrotation
						End Site
						{
							OFFSET 0.00000 -0.00000 1.18363
						}
					}
				}
			}
		}
	}
	JOINT RHipJoint
	{
		OFFSET 0 0 0
		CHANNELS 3 Zrotation Yrotation Xrotation
		JOINT RightUpLeg
		{
			OFFSET -1.33617 -1.78394 0.89329
			CHANNELS 3 Zrotation Yrotation Xrotation
			JOINT RightLeg
			{
				OFFSET -2.56922 -7.05888 0.00000
				CHANNELS 3 Zrotation Yrotation Xrotation
				JOINT RightFoot
				{
					OFFSET -2.56568 -7.04915 0.00000
					CHANNELS 3 Zrotation Yrotation Xrotation
					JOINT RightToeBase
					{
						OFFSET -0.27533 -0.75646 2.18105
						CHANNELS 3 Zrotation Yrotation Xrotation
						End Site
						{
							OFFSET -0.00000 -0.00000 1.15233
						}
					}
				}
			}
		}
	}
	JOINT LowerBack
	{
		OFFSET 0 0 0
		CHANNELS 3 Zrotation Yrotation Xrotation
		JOINT Spine
		{
			OFFSET 0.06190 2.15152 -0.00935
			CHANNELS 3 Zrotation Yrotation Xrotation
			JOINT Spine1
			{
				OFFSET 0.06334 2.15332 0.00872
				CHANNELS 3 Zrotation Yrotation Xrotation
				JOINT Neck
				{
					OFFSET 0 0 0
					CHANNELS 3 Zrotation Yrotation Xrotation
					JOINT Neck1
					{
						OFFSET -0.04202 1.66908 0.23524
						CHANNELS 3 Zrotation Yrotation Xrotation
						JOINT Head
						{
							OFFSET 0.07510 1.69357 -0.24440
							CHANNELS 3 Zrotation Yrotation Xrotation
							End Site
							{
								OFFSET 0.02556 1.71719 -0.11000
							}
						}
					}
				}
				JOINT LeftShoulder
				{
					OFFSET 0 0 0
					CHANNELS 3 Zrotation Yrotation Xrotation
					JOINT LeftArm
					{
						OFFSET 3.67168 1.26306 -0.41342
						CHANNELS 3 Zrotation Yrotation Xrotation
						JOINT LeftForeArm
						{
							OFFSET 4.68510 -0.00000 -0.00000
							CHANNELS 3 Zrotation Yrotation Xrotation
							JOINT LeftHand
							{
								OFFSET 3.39626 -0.00000 -0.00000
								CHANNELS 3 Zrotation Yrotation Xrotation
								JOINT LeftFingerBase
								{
									OFFSET 0 0 0
									CHANNELS 3 Zrotation Yrotation Xrotation
									JOINT LeftHandIndex1
									{
										OFFSET 0.48608 -0.00000 -0.00000
										CHANNELS 3 Zrotation Yrotation Xrotation
										End Site
										{
											OFFSET 0.39189 -0.00000 -0.00000
										}
									}
								}
								JOINT LThumb
								{
									OFFSET 0 0 0
									CHANNELS 3 Zrotation Yrotation Xrotation
									End Site
									{
										OFFSET 0.39787 -0.00000 0.39787
									}
								}
							}
						}
					}
				}
				JOINT RightShoulder
				{
					OFFSET 0 0 0
					CHANNELS 3 Zrotation Yrotation Xrotation
					JOINT RightArm
					{
						OFFSET -3.04136 1.42992 -0.76390
						CHANNELS 3 Zrotation Yrotation Xrotation
						JOINT RightForeArm
						{
							OFFSET -5.55576 -0.00000 -0.00000
							CHANNELS 3 Zrotation Yrotation Xrotation
							JOINT RightHand
							{
								OFFSET -3.32774 -0.00000 -0.00000
								CHANNELS 3 Zrotation Yrotation Xrotation
								JOINT RightFingerBase
								{
									OFFSET 0 0 0
									CHANNELS 3 Zrotation Yrotation Xrotation
									JOINT RightHandIndex1
									{
										OFFSET -0.50763 -0.00000 -0.00000
										CHANNELS 3 Zrotation Yrotation Xrotation
										End Site
										{
											OFFSET -0.40926 -0.00000 -0.00000
										}
									}
								}
								JOINT RThumb
								{
									OFFSET 0 0 0
									CHANNELS 3 Zrotation Yrotation Xrotation
									End Site
									{
										OFFSET -0.41551 -0.00000 0.41551
									}
								}
							}
						}
					}
				}
			}
		}
	}
}
MOTION
Frames: 8
Frame Time: .0083333
33.1733 17.5739 5.5651 0 0 0 0 0 0 -21 0 0 0 0 0 0 0 0 0 0 0 0 0 0 21 0 0 0 0 0 0 0 0 0 0 0 0 0 0 0 0 0 0 0 0 0 0 -16 0 0 21 0 0 11 0 0 0 -8 0 0 0 0 0 0 0 0 0 0 0 0 0 0 0 0 0 0 0 0 8 0 0 0 0 0 0 0 0 0 0 0 0 0 0 0 0 0
33.1733 17.5739 5.5651 35.7266 -88.8381 -27.4367 0.0000 0.0000 0.0000 -22.9043 -5.0832 -1.9429 0.3332 3.7096 10.2610 0.3998 -6.6255 -11.4812 0.0001 -0.0618 -0.1697 0.0000 0.0000 0.0000 15.9784 5.3353 -40.3127 -3.2523 -11.0928 32.5933 0.5946 -14.3660 -10.5708 -0.0502 -1.4454 3.9751 -3.3552 -1.3901 -0.0751 -0.2395 -1.8380 0.8266 1.6147 -0.9463 0.9874 -6.3133 -0.1523 -13.1855 -3.5091 1.6265 30.2506 -0.0788 -0.7816 12.1767 -0.0000 -0.0000 0.0000 -88.1575 -15.2751 31.8594 20.2898 -30.9899 -5.6798 -0.0000 -0.0000 19.1560 22.5954 24.1966 9.6800 -7.1250 0.0000 -0.0000 -7.3530 55.7814 -1.9528 -0.0000 -0.0000 0.0000 88.4205 6.8674 23.1004 -24.6624 35.8569 -8.0913 0.0000 0.0000 1.4653 -14.2249 -19.4645 4.8285 7.1250 -0.0000 -0.0000 13.8618 -49.5017 -1.5656
33.0462 17.5518 5.5624 44.2819 -88.6717 -35.8514 0.0000 0.0000 0.0000 -23.1804 -4.7554 -1.7216 0.3339 3.7136 10.2722 0.4226 -6.9687 -11.8354 0.0007 0.1649 0.4532 0.0000 0.0000 0.0000 15.7285 5.6651 -40.0911 -2.6945 -10.1833 29.5725 0.5706 -14.0144 -10.1201 -0.0359 -1.2226 3.3614 -3.5477 -1.4249 0.0935 -0.2247 -1.8928 0.7159 1.7433 -0.9706 0.7892 -6.3101 -0.1459 -13.2156 -3.5559 1.6504 30.2918 -0.0946 -0.7799 12.2004 0.0000 -0.0000 0.0000 -88.4257 -14.7703 30.8060 19.7943 -30.3937 -5.4269 -0.0000 -0.0000 19.3962 23.0393 24.1683 9.8773 -7.1250 0.0000 -0.0000 -6.8725 55.8442 -1.8348 0.0000 -0.0000 0.0000 89.2119 6.2222 22.3868 -23.8711 35.0276 -7.6324 0.0000 0.0000 1.8188 -14.3669 -19.1137 4.7943 7.1250 -0.0000 -0.0000 13.5978 -49.1760 -1.4242
32.9174 17.5272 5.5597 52.1363 -88.6049 -43.5313 0.0000 0.0000 0.0000 -23.3801 -4.4986 -1.4889 0.3338 3.7132 10.2711 0.4506 -7.1957 -12.2221 0.0013 0.2324 0.6386 0.0000 0.0000 0.0000 15.5005 6.2321 -39.7842 -2.1871 -9.2453 26.5658 0.5464 -13.6650 -9.6965 -0.0185 -0.8772 2.4110 -3.5876 -1.4396 -0.1024 -0.2579 -1.9025 0.7932 1.7247 -0.9799 0.9791 -6.2578 -0.1469 -13.2678 -3.5500 1.6436 30.1362 -0.0993 -0.7659 12.1481 0.0000 0.0000 0.0000 -88.5787 -14.5256 29.7283 19.2522 -29.7308 -5.1553 -0.0000 -0.0000 19.5490 23.3540 24.5646 10.1763 -7.1250 0.0000 -0.0000 -6.6954 56.3223 -1.8649 0.0000 0.0000 0.0000 90.0805 6.1765 21.4597 -22.8157 33.8866 -7.0352 0.0000 0.0000 2.2604 -14.5864 -18.7812 4.7891 7.1250 -0.0000 -0.0000 13.2712 -48.8787 -1.2903
32.7833 17.5015 5.5567 55.8331 -88.4465 -47.0657 0.0000 0.0000 0.0000 -23.5913 -4.2817 -1.2826 0.3404 3.7494 10.3726 0.4792 -7.5016 -12.6220 0.0033 0.3712 1.0200 0.0000 0.0000 0.0000 15.0597 7.0137 -39.2105 -1.7493 -8.3231 23.6998 0.5158 -13.4082 -9.8642 -0.0221 -0.9604 2.6400 -3.6647 -1.5073 -0.3475 -0.2273 -1.9803 0.8603 1.7896 -1.0240 1.1938 -6.2510 -0.1659 -13.1745 -3.6088 1.6212 29.9144 -0.1220 -0.7695 12.0412 -0.0000 0.0000 0.0000 -88.7833 -14.1474 28.8014 18.6810 -29.0204 -4.8751 -0.0000 -0.0000 19.6464 23.3973 24.8041 10.2882 -7.1250 0.0000 -0.0000 -6.7461 56.5806 -1.9213 -0.0000 0.0000 0.0000 90.7831 6.0630 20.4795 -21.7905 32.7395 -6.4722 0.0000 0.0000 2.3304 -15.1122 -19.1413 5.0603 7.1250 -0.0000 -0.0000 12.9027 -49.3150 -1.3938
32.6496 17.4759 5.5535 58.8964 -88.2931 -49.9740 0.0000 0.0000 0.0000 -23.7834 -4.0414 -1.0545 0.3451 3.7749 10.4443 0.5074 -7.8182 -13.0100 0.0063 0.5135 1.4111 0.0000 0.0000 0.0000 14.6017 7.8221 -38.6555 -1.3591 -7.3794 20.8443 0.5072 -13.3279 -9.8838 -0.0142 -0.7684 2.1117 -3.7431 -1.5608 -0.5245 -0.1953 -2.0421 0.9096 1.8588 -1.0591 1.3514 -6.2366 -0.1771 -13.1527 -3.6488 1.6114 29.7510 -0.1380 -0.7675 11.9723 0.0000 -0.0000 0.0000 -88.9870 -13.7774 27.8672 18.1322 -28.3261 -4.6118 -0.0000 -0.0000 19.7473 23.4663 25.0387 10.4108 -7.1250 0.0000 -0.0000 -6.7685 56.8392 -1.9701 0.0000 -0.0000 0.0000 91.4546 5.9433 19.4452 -20.8259 31.6246 -5.9584 0.0000 0.0000 2.3800 -15.5310 -19.3455 5.2599 7.1250 -0.0000 -0.0000 12.5778 -49.5820 -1.4413
32.5137 17.4496 5.5502 60.5522 -88.1425 -51.4840 0.0000 0.0000 0.0000 -23.9459 -3.8098 -0.8173 0.3514 3.8085 10.5386 0.5364 -8.1530 -13.4006 0.0102 0.6532 1.7949 0.0000 0.0000 0.0000 14.0707 8.7555 -38.0062 -1.0310 -6.4585 18.1207 0.5134 -13.4452 -10.0735 -0.0067 -0.5300 1.4564 -3.8072 -1.6193 -0.6906 -0.1388 -2.1115 0.9505 1.9451 -1.0976 1.4954 -6.2370 -0.1896 -13.1326 -3.6835 1.6021 29.5984 -0.1496 -0.7670 11.9083 0.0000 0.0000 0.0000 -89.1951 -13.3679 27.0125 17.5648 -27.5963 -4.3458 -0.0000 -0.0000 19.8211 23.4194 25.2095 10.4528 -7.1250 0.0000 -0.0000 -6.8904 57.0063 -2.0336 0.0000 0.0000 0.0000 92.0272 5.8602 18.3609 -19.8717 30.4874 -5.4661 0.0000 0.0000 2.2444 -15.9831 -19.7613 5.5313 7.1250 -0.0000 -0.0000 12.2960 -50.0675 -1.5566
32.3757 17.4226 5.5469 61.0869 -87.9980 -51.8855 0.0000 0.0000 0.0000 -24.0795 -3.5923 -0.5664 0.3593 3.8508 10.6573 0.5659 -8.4917 -13.7913 0.0147 0.7818 2.1485 0.0000 0.0000 0.0000 13.4970 9.7568 -37.3346 -0.7725 -5.6120 15.6628 0.5336 -13.7571 -10.4596 -0.0016 -0.2619 0.7197 -3.8548 -1.6824 -0.8081 -0.0548 -2.1900 0.9651 2.0519 -1.1394 1.5866 -6.2457 -0.2019 -13.1168 -3.7269 1.5973 29.4711 -0.1629 -0.7682 11.8555 -0.0000 -0.0000 0.0000 -89.4116 -12.9016 26.2347 16.9717 -26.8204 -4.0746 -0.0000 -0.0000 19.8907 23.2669 25.2409 10.3901 -7.1250 0.0000 -0.0000 -7.0680 57.0057 -2.0863 -0.0000 -0.0000 0.0000 92.4811 5.7614 17.2541 -18.9599 29.3688 -5.0111 0.0000 0.0000 1.9371 -16.4127 -20.3097 5.8376 7.1250 -0.0000 -0.0000 12.0840 -50.6848 -1.7143
